<?xml version="1.0" standalone="no"?>
<!DOCTYPE svg PUBLIC "-//W3C//DTD SVG 20010904//EN"
 "http://www.w3.org/TR/2001/REC-SVG-20010904/DTD/svg10.dtd">
<svg version="1.0" xmlns="http://www.w3.org/2000/svg"
 width="1056.000000pt" height="1056.000000pt" viewBox="0 0 1056.000000 1056.000000"
 preserveAspectRatio="xMidYMid meet">
<metadata>
Created by potrace 1.11, written by Peter Selinger 2001-2013
</metadata>
<g transform="translate(0.000000,1056.000000) scale(0.100000,-0.100000)"
fill="#000000" stroke="none">
<path d="M899 9996 c-2 -2 -22 -6 -44 -9 -36 -5 -73 -12 -115 -20 -8 -1 -21
-6 -27 -10 -7 -5 -17 -5 -23 -2 -5 3 -10 1 -10 -5 0 -6 -4 -9 -8 -6 -5 3 -20
-1 -35 -9 -15 -8 -27 -12 -27 -9 0 2 -33 -12 -72 -32 -215 -107 -370 -276
-460 -499 -11 -27 -22 -57 -24 -65 -2 -8 -10 -40 -18 -70 -8 -30 -18 -71 -23
-90 -4 -19 -9 -1965 -10 -4324 l-3 -4288 61 73 c34 41 69 81 78 90 9 9 30 33
46 54 17 20 39 47 50 59 11 13 36 42 55 65 19 24 46 55 60 70 14 15 43 49 65
75 39 47 57 69 94 112 17 20 18 184 18 3945 1 2963 3 3935 12 3969 18 66 52
150 62 150 5 0 9 7 9 15 0 19 105 125 155 157 42 26 105 53 152 65 44 11 8652
13 8709 1 27 -5 58 -13 69 -18 11 -4 35 -14 53 -22 17 -7 32 -16 32 -20 0 -5
6 -8 14 -8 15 0 132 -111 153 -145 41 -66 71 -148 80 -215 2 -14 4 -1562 4
-3440 2 -3602 3 -3472 -43 -3579 -23 -54 -82 -138 -115 -164 -13 -10 -30 -25
-37 -33 -8 -8 -19 -14 -24 -14 -6 0 -12 -4 -14 -8 -4 -10 -105 -59 -143 -69
-16 -4 -1788 -9 -3937 -10 l-3906 -3 -254 -255 c-139 -141 -254 -260 -256
-265 -2 -4 215 -8 487 -8 269 0 494 -3 500 -6 6 -4 11 -4 11 1 0 7 153 9 170
3 3 -2 10 -1 15 0 13 2 277 2 290 0 6 -1 15 -2 20 -1 6 1 48 2 95 1 47 -1 90
-1 95 -1 79 2 272 2 280 0 6 -1 14 -1 19 0 13 2 108 3 376 3 135 -1 252 -1
260 -1 19 0 460 0 480 0 65 -1 148 -1 160 0 8 0 121 0 250 -1 129 0 240 -1
245 0 6 0 186 0 400 0 2101 -4 4152 -1 4205 5 64 7 73 8 135 21 99 19 299 107
375 165 113 86 227 229 284 354 15 33 32 67 36 77 16 29 45 149 58 233 10 67
9 7080 -1 7125 -4 19 -15 62 -23 95 -9 33 -17 65 -18 70 -7 32 -22 69 -59 145
-23 47 -44 87 -47 90 -3 3 -24 30 -46 60 -43 57 -141 160 -152 160 -4 0 -19
10 -33 23 -63 56 -256 146 -349 163 -42 8 -87 18 -100 23 -17 6 -8814 13
-8821 7z"/>
<path d="M2433 8243 c-5 -2 -50 -4 -102 -5 l-94 -3 2 -60 c0 -33 1 -96 1 -141
l0 -80 152 -1 c84 -1 162 -2 173 -2 20 -1 20 -8 19 -571 -1 -314 2 -573 6
-575 5 -3 52 -5 106 -5 55 0 113 0 130 0 l31 0 1 562 c0 310 1 570 1 578 1 13
26 15 168 14 l168 -1 5 36 c3 20 4 84 2 142 l-3 106 -52 2 c-101 3 -707 6
-714 4z"/>
<path d="M3586 8240 c-50 -4 -60 -9 -67 -27 -5 -13 -4 -23 0 -23 5 0 5 -16 1
-35 -4 -19 -4 -35 1 -35 5 0 5 -10 0 -23 -5 -13 -5 -30 -1 -37 5 -8 6 -18 3
-23 -8 -13 -8 -96 0 -103 3 -3 2 -17 -3 -30 -6 -14 -6 -26 1 -29 6 -4 6 -13 0
-23 -5 -9 -5 -26 0 -39 5 -13 4 -25 -1 -28 -6 -3 -6 -15 0 -30 6 -15 6 -25 0
-25 -5 0 -5 -12 0 -29 4 -15 4 -34 0 -41 -5 -7 -4 -24 1 -37 5 -13 5 -23 -1
-23 -5 0 -5 -12 0 -30 5 -16 6 -30 2 -30 -4 0 -7 -13 -7 -30 0 -16 3 -30 7
-30 4 0 3 -13 -2 -30 -5 -16 -5 -30 -1 -30 4 0 4 -25 1 -55 -3 -30 -3 -60 1
-67 4 -6 3 -22 -1 -34 -6 -14 -5 -26 1 -29 6 -4 6 -13 0 -23 -5 -9 -5 -26 0
-39 5 -13 4 -25 -1 -28 -6 -3 -6 -15 0 -30 6 -15 6 -25 0 -25 -5 0 -5 -12 0
-29 4 -15 4 -34 0 -41 -5 -7 -4 -24 1 -37 5 -13 5 -23 -1 -23 -5 0 -5 -12 0
-30 5 -16 6 -30 2 -30 -4 0 -7 -13 -7 -30 0 -16 3 -30 6 -30 4 0 6 -8 5 -17
-1 -13 6 -18 27 -18 15 1 27 -2 27 -5 0 -3 24 -4 53 -3 28 0 77 2 107 2 l55 1
-1 285 c0 193 3 285 10 288 10 3 383 1 396 -2 3 0 5 -124 5 -273 -1 -150 1
-279 3 -285 4 -12 72 -16 217 -14 48 1 68 22 55 56 -5 13 -6 26 -3 29 8 8 9
76 1 76 -4 0 -3 13 2 30 5 17 5 32 0 35 -5 3 -5 16 0 30 6 15 6 27 0 30 -6 3
-6 15 0 30 6 15 6 27 0 30 -6 3 -6 15 0 30 6 15 6 27 0 30 -6 3 -6 15 0 30 6
15 6 27 0 30 -6 3 -6 15 0 30 6 15 6 27 0 30 -6 3 -6 15 0 30 6 15 6 27 -1 30
-5 4 -6 11 -3 17 8 13 8 433 0 447 -4 5 -2 12 3 16 7 3 7 15 1 30 -6 15 -6 27
1 30 5 4 7 11 4 16 -9 14 -12 88 -4 101 4 6 3 24 -1 39 -5 16 -6 29 -2 29 6 0
6 65 0 117 -1 11 -114 24 -124 14 -2 -2 -36 -3 -76 -2 l-73 2 0 -288 0 -288
-198 0 c-109 0 -202 2 -206 5 -4 3 -7 130 -7 282 0 152 -3 280 -6 283 -8 9
-127 11 -202 5z"/>
<path d="M4824 8242 c-24 -3 -36 -40 -22 -66 5 -9 5 -16 1 -16 -4 0 -8 -25 -8
-55 0 -30 2 -55 5 -55 7 0 4 -66 -5 -79 -3 -6 -1 -11 5 -11 8 0 8 -6 0 -20 -8
-14 -8 -20 0 -20 8 0 8 -6 0 -20 -8 -14 -8 -20 0 -20 8 0 8 -6 0 -20 -8 -14
-8 -20 0 -20 8 0 8 -6 0 -20 -8 -14 -8 -20 0 -20 8 0 8 -6 0 -20 -8 -14 -8
-20 0 -20 8 0 8 -6 0 -20 -8 -14 -8 -20 0 -20 6 0 8 -5 5 -11 -10 -16 -12 -79
-2 -79 4 0 4 -8 -2 -17 -6 -11 -6 -24 0 -35 6 -10 5 -19 -1 -23 -6 -4 -6 -15
0 -30 5 -14 6 -25 2 -25 -4 0 -7 -25 -7 -55 0 -30 4 -55 8 -55 4 0 3 -8 -2
-18 -6 -11 -6 -24 0 -34 6 -10 6 -19 0 -23 -7 -4 -7 -15 -1 -30 5 -14 6 -25 2
-25 -4 0 -7 -25 -7 -55 0 -30 3 -55 7 -55 4 0 3 -13 -2 -30 -5 -16 -5 -30 -2
-30 9 0 7 -64 -3 -79 -3 -6 -1 -11 5 -11 8 0 8 -6 0 -20 -8 -14 -8 -20 0 -20
8 0 8 -6 0 -20 -8 -14 -8 -20 0 -20 7 0 8 -6 0 -19 -7 -14 -7 -22 0 -26 6 -4
7 -11 3 -18 -11 -17 -10 -54 2 -55 19 -2 214 -4 340 -3 36 1 177 0 215 -1 8 0
40 1 70 2 30 1 60 1 65 0 6 -1 31 -2 56 -1 42 1 47 4 51 26 3 14 2 28 -3 31
-5 2 -4 15 1 28 4 12 4 29 0 36 -5 8 -5 21 0 31 5 9 6 19 3 23 -4 3 -5 30 -4
60 l2 55 -257 -1 c-176 0 -259 4 -264 11 -7 12 -5 95 4 117 3 8 2 14 -2 14 -4
0 -7 16 -7 35 0 19 3 35 6 35 4 0 4 13 -1 29 -4 15 -5 33 -1 38 3 5 96 9 219
8 132 0 216 3 220 9 11 18 9 266 -3 275 -5 4 -104 7 -218 6 -115 0 -211 3
-214 8 -7 12 -7 133 1 146 4 6 3 11 -2 11 -8 0 -6 109 2 118 3 2 114 4 248 5
l243 2 0 143 1 142 -31 0 c-168 3 -678 -1 -685 -5 -5 -3 -10 -2 -12 2 -1 5
-13 7 -24 5z"/>
<path d="M2257 6322 c-15 -2 -25 -7 -23 -11 3 -4 6 -23 6 -42 1 -51 2 -222 1
-239 0 -8 -1 -44 0 -80 0 -36 0 -72 0 -80 -3 -145 -2 -262 1 -266 3 -2 2 -24
-2 -48 -3 -23 -3 -51 0 -62 4 -10 4 -30 0 -44 -3 -14 -3 -42 0 -62 4 -21 5
-38 1 -38 -5 0 -6 -89 -1 -110 1 -5 1 -106 -1 -225 0 -27 0 -54 1 -60 1 -5 1
-24 0 -41 -1 -18 3 -35 9 -39 6 -3 11 -3 11 2 0 9 98 9 107 -1 3 -3 12 -1 18
4 9 7 21 7 39 0 14 -5 26 -6 26 -2 0 4 17 7 38 5 l37 -2 0 395 -1 395 69 -73
c37 -40 102 -108 143 -152 41 -43 74 -80 74 -82 0 -7 64 -63 72 -64 4 0 13 6
20 14 35 35 250 266 283 304 21 23 41 42 45 42 4 0 7 -170 8 -377 0 -439 -1
-406 12 -398 6 3 10 1 10 -5 0 -7 6 -8 19 -1 10 6 21 7 25 4 6 -6 96 -6 131 0
11 3 30 0 43 -4 14 -5 22 -5 22 2 0 6 5 7 12 3 8 -5 9 0 6 14 -4 12 -3 22 0
22 4 0 7 18 7 40 0 22 -3 40 -7 40 -4 0 -4 11 1 23 5 13 6 30 1 37 -4 7 -6 20
-2 28 7 20 7 80 0 88 -4 3 -2 19 2 35 5 17 5 29 0 29 -6 0 -6 10 0 25 6 15 6
27 0 30 -6 3 -6 15 0 30 6 15 6 27 0 30 -6 4 -7 13 -1 24 5 9 6 23 1 30 -4 8
-4 27 0 42 5 17 5 29 0 29 -6 0 -6 10 0 25 6 15 6 27 0 30 -6 3 -6 15 0 30 6
15 6 27 0 30 -6 4 -7 13 -1 24 6 10 6 23 1 31 -5 8 -5 21 0 31 5 9 6 19 3 23
-4 4 -6 26 -4 49 6 92 6 117 -1 117 -4 0 -5 7 -1 15 8 23 9 145 1 145 -4 0 -5
7 -1 16 9 24 10 66 1 91 -4 12 -3 25 2 28 6 3 6 15 0 30 -5 14 -6 25 -2 25 10
0 5 81 -6 92 -5 5 -24 10 -42 10 -35 1 -51 -13 -175 -156 -27 -32 -66 -75 -85
-96 -19 -22 -52 -58 -72 -82 -45 -52 -79 -90 -166 -187 -37 -40 -72 -81 -78
-89 -13 -17 -15 -15 -100 85 -23 26 -52 60 -65 74 -32 34 -137 153 -185 208
-22 25 -61 70 -89 101 -27 30 -65 73 -83 94 -34 39 -68 54 -115 48z"/>
<path d="M4580 6323 c0 -4 -28 -8 -63 -9 -79 -1 -139 -8 -155 -18 -6 -4 -16
-5 -21 -2 -5 4 -11 3 -13 -1 -1 -5 -28 -16 -58 -27 -56 -19 -165 -86 -210
-129 -118 -114 -198 -279 -214 -444 -2 -23 -7 -46 -10 -52 -4 -6 -3 -11 3 -11
7 0 7 -8 1 -24 -5 -13 -7 -26 -5 -28 2 -2 7 -26 10 -53 4 -28 9 -61 11 -75 3
-14 6 -32 7 -40 8 -54 81 -216 107 -237 8 -7 12 -13 8 -13 -16 0 109 -124 157
-155 76 -49 161 -89 213 -100 12 -3 32 -7 45 -10 12 -3 51 -8 86 -10 35 -3 67
-8 72 -11 5 -3 9 0 9 6 0 7 6 8 19 1 10 -6 21 -8 25 -4 3 3 25 7 48 8 61 4
169 32 228 61 27 13 54 24 60 24 5 0 10 4 10 8 0 5 12 15 28 23 45 23 131 110
178 180 39 59 86 164 101 224 17 70 30 194 23 215 -1 3 -3 28 -5 55 -4 52 -18
133 -25 143 -2 1 -3 5 -4 10 -11 47 -57 145 -94 200 -33 48 -130 152 -142 152
-5 0 -15 6 -23 14 -33 34 -177 98 -219 97 -10 0 -18 3 -18 7 0 4 -8 8 -17 9
-62 4 -135 13 -143 18 -6 3 -10 3 -10 -2z m140 -319 c28 -10 59 -26 70 -36 11
-10 24 -18 29 -18 15 0 111 -122 111 -142 0 -9 4 -19 9 -22 27 -17 45 -189 29
-275 -5 -31 -11 -60 -11 -66 -1 -5 -4 -12 -7 -15 -3 -3 -16 -27 -30 -53 -24
-45 -110 -147 -110 -130 0 4 -4 4 -8 -2 -13 -18 -69 -44 -128 -60 -142 -37
-304 -1 -394 88 -49 48 -108 127 -96 127 3 0 -4 21 -15 47 -12 29 -21 76 -24
123 -12 248 129 429 355 457 25 3 46 6 47 7 8 7 130 -15 173 -30z"/>
<path d="M5280 6324 c0 -1 21 -46 47 -100 26 -55 47 -101 46 -104 0 -3 8 -17
18 -32 10 -14 19 -30 19 -34 0 -4 23 -55 52 -113 28 -58 52 -108 53 -111 0 -3
20 -45 44 -95 24 -49 63 -130 86 -180 23 -49 69 -146 103 -215 129 -267 202
-423 202 -430 0 -17 45 -37 66 -30 19 7 73 102 80 140 2 8 8 16 13 18 6 2 11
10 11 17 0 12 76 174 116 248 8 15 12 27 7 27 -4 0 -3 4 3 8 14 10 89 171 86
185 -1 4 2 7 7 7 5 0 16 17 24 38 15 36 85 185 198 417 29 61 54 112 54 115 1
3 18 40 38 82 21 42 37 81 37 87 0 6 5 11 10 11 15 0 12 40 -2 41 -104 5 -313
-2 -321 -10 -6 -6 -7 -11 -2 -11 6 0 5 -4 0 -8 -6 -4 -53 -92 -105 -197 -52
-104 -98 -193 -103 -196 -5 -3 -9 -10 -9 -15 0 -13 -152 -314 -158 -314 -3 0
-90 169 -194 375 -175 346 -191 375 -215 376 -90 2 -311 4 -311 3z"/>
<path d="M6892 6321 c-10 -6 -12 -131 -13 -532 0 -874 0 -911 10 -904 5 3 12
2 14 -2 6 -10 59 -9 75 1 6 3 13 2 16 -3 3 -4 24 -5 46 -1 21 4 42 5 45 2 7
-7 65 -8 65 -1 0 3 11 4 25 1 24 -4 31 5 26 32 -5 26 -6 86 -1 86 7 0 4 175
-3 195 -4 8 -3 15 1 15 4 0 7 25 7 55 0 30 -3 55 -7 55 -4 0 -3 14 2 30 5 17
5 30 1 30 -4 0 -5 22 -1 48 3 27 3 61 -1 75 -4 15 -4 27 -1 27 4 0 7 25 7 55
0 30 -3 55 -7 55 -4 0 -3 14 2 30 5 17 6 30 2 30 -4 0 -7 23 -7 50 0 28 2 50
5 50 7 0 5 139 -3 146 -3 4 -2 15 3 25 7 12 7 20 0 24 -6 4 -7 13 -1 24 5 9 6
23 1 31 -4 7 -6 18 -4 24 7 17 10 106 4 106 -6 0 -5 74 2 86 11 18 -11 54 -34
55 -49 2 -109 0 -116 -5 -5 -3 -24 -1 -43 3 -19 4 -43 5 -54 1 -11 -4 -27 -4
-36 1 -8 4 -21 4 -27 0z"/>
<path d="M7610 6320 c0 -3 -20 -4 -45 -3 -34 2 -45 -1 -46 -12 -5 -77 -2 -192
3 -188 5 2 4 -6 -1 -19 -5 -13 -5 -33 0 -45 5 -14 5 -23 -1 -23 -6 0 -6 -9 0
-25 5 -14 6 -25 2 -25 -4 0 -7 -22 -7 -50 0 -27 4 -50 8 -50 4 0 4 -8 -2 -17
-5 -10 -5 -26 -1 -39 5 -12 6 -24 3 -27 -7 -8 -8 -91 0 -103 3 -6 2 -16 -3
-24 -5 -8 -5 -21 1 -31 5 -10 6 -20 1 -23 -8 -5 -7 -80 2 -103 3 -7 2 -13 -2
-13 -8 0 -7 -114 1 -127 3 -5 2 -15 -3 -23 -5 -8 -5 -21 1 -31 5 -10 6 -20 1
-23 -8 -5 -7 -80 2 -103 3 -7 2 -13 -2 -13 -4 0 -7 -22 -7 -50 0 -27 4 -50 8
-50 4 0 4 -8 -1 -17 -5 -10 -6 -27 -2 -38 4 -11 3 -30 -1 -43 -6 -14 -5 -31 1
-43 6 -11 7 -19 1 -19 -5 0 -7 -9 -4 -19 3 -11 12 -18 21 -16 10 1 21 0 26 -3
15 -8 67 -8 73 1 2 4 13 3 23 -3 12 -7 27 -7 45 0 14 5 24 6 21 1 -3 -4 13 -5
34 -1 22 4 43 4 46 -1 2 -4 15 -4 28 1 13 5 27 6 30 3 8 -8 68 -8 89 0 9 3 19
2 22 -3 4 -6 13 -7 24 -1 9 5 23 6 31 1 7 -4 23 -5 35 0 12 5 27 5 33 1 14 -8
88 -5 104 5 6 4 8 3 5 -3 -4 -7 7 -8 33 -3 21 4 43 3 48 -2 16 -16 33 18 32
63 -1 63 -1 69 0 124 3 115 9 106 -67 104 -38 0 -156 -1 -263 0 l-195 1 1 133
c0 73 3 138 6 143 4 6 94 9 222 9 138 0 217 3 219 10 2 5 3 71 2 145 l0 135
-219 0 c-210 0 -219 1 -225 20 -4 11 -6 29 -5 40 3 28 4 69 3 149 0 37 2 71 5
74 3 3 115 5 248 6 l243 1 0 141 1 141 -50 2 c-28 2 -68 2 -88 2 -85 -2 -117
-1 -191 1 -42 2 -77 1 -77 -2 0 -4 -109 -4 -117 0 -9 4 -163 4 -163 0z"/>
<path d="M2255 4403 c-19 -4 -20 -9 -15 -68 3 -36 2 -65 -3 -65 -4 0 -6 -4 -3
-8 3 -5 5 -42 5 -83 1 -41 1 -105 1 -144 1 -38 1 -77 1 -85 -3 -145 -2 -262 1
-266 3 -2 2 -24 -2 -48 -3 -23 -3 -51 0 -62 4 -10 4 -30 0 -44 -3 -14 -3 -42
0 -62 4 -21 5 -38 1 -38 -5 0 -6 -89 -1 -110 0 -3 1 -45 0 -95 -2 -266 -1
-281 29 -266 10 6 23 6 31 1 8 -5 21 -5 30 0 9 5 22 5 30 0 8 -5 19 -5 26 1 7
6 21 6 38 -1 14 -5 26 -6 26 -2 0 4 11 7 25 7 14 0 25 -3 25 -6 0 -4 15 -4 33
1 18 4 43 3 55 -1 12 -5 22 -5 22 -1 0 6 55 7 70 2 6 -3 3 -3 66 6 27 4 60 8
74 9 14 2 25 4 25 5 0 1 7 3 15 5 88 18 232 102 295 171 79 86 78 84 130 193
85 177 98 397 33 586 -20 59 -76 172 -101 201 -36 44 -107 113 -140 138 -50
37 -172 92 -222 101 -22 4 -44 10 -49 13 -5 3 -30 6 -55 6 -25 1 -52 5 -59 10
-7 4 -12 2 -12 -4 0 -7 -6 -8 -17 -1 -9 5 -26 6 -37 1 -12 -4 -30 -4 -41 0
-11 4 -30 4 -42 -1 -13 -5 -23 -5 -23 -1 0 4 -11 7 -25 7 -14 0 -25 -4 -25 -8
0 -4 -7 -4 -16 1 -9 5 -34 6 -55 2 -21 -4 -39 -4 -39 -1 0 9 -48 7 -57 -2 -3
-4 -11 -3 -17 1 -6 4 -20 6 -31 5z m456 -297 c113 -11 221 -73 277 -160 14
-22 25 -44 24 -48 -1 -5 3 -8 10 -8 6 0 8 -3 5 -7 -4 -3 -3 -11 2 -17 16 -19
33 -97 36 -166 7 -124 -38 -251 -117 -332 -47 -47 -62 -58 -125 -87 -53 -24
-90 -30 -195 -32 -100 -1 -122 5 -108 31 7 12 7 21 0 25 -5 3 -6 15 -1 28 9
26 7 79 -3 95 -4 6 -3 20 2 29 9 20 9 79 -1 89 -3 3 -2 16 2 28 9 25 7 78 -3
94 -4 6 -3 20 2 29 9 20 9 79 -1 89 -3 3 -2 16 2 28 9 25 7 78 -3 94 -4 6 -3
20 2 29 7 15 8 76 2 93 -1 3 -1 10 0 15 1 6 2 22 2 37 -1 26 2 27 56 30 31 2
62 2 67 1 6 -1 35 -4 66 -7z"/>
<path d="M3698 4403 c-16 -4 -18 -18 -18 -116 -2 -738 1 -1310 6 -1318 3 -6
15 -9 25 -6 11 3 19 1 19 -4 0 -6 6 -6 17 0 11 6 24 6 35 0 10 -5 18 -6 18 -2
0 4 11 8 25 8 14 0 25 -4 25 -8 0 -4 8 -3 18 2 10 5 24 6 32 1 7 -4 24 -4 36
0 15 6 26 5 30 -1 4 -7 10 -6 19 1 8 7 21 7 39 0 14 -5 26 -6 26 -2 0 6 42 8
60 2 9 -3 95 -1 158 4 61 5 182 50 182 68 0 5 6 8 12 8 27 0 139 142 143 180
0 3 4 11 9 18 14 23 21 75 20 162 -1 72 -5 94 -29 145 -16 32 -46 76 -67 97
l-38 37 23 23 c107 107 132 324 56 485 -28 59 -120 161 -140 155 -5 -1 -9 2
-9 6 0 9 -56 31 -95 38 -14 2 -37 6 -52 9 -50 10 -83 11 -83 3 0 -5 -8 -5 -17
1 -10 5 -26 5 -40 0 -13 -5 -23 -5 -23 -1 0 4 -11 7 -25 7 -14 0 -25 -4 -25
-8 0 -4 -7 -4 -16 1 -9 5 -34 6 -55 2 -21 -4 -39 -5 -39 -1 0 3 -11 6 -25 6
-14 0 -25 -4 -25 -8 0 -4 -7 -4 -16 1 -9 5 -34 6 -55 2 -21 -4 -39 -5 -39 -1
0 3 -11 6 -25 6 -14 0 -25 -4 -25 -8 0 -4 -8 -4 -17 1 -10 5 -26 7 -35 5z
m514 -292 c28 -1 46 -10 77 -40 40 -39 45 -53 43 -120 -2 -40 -37 -95 -72
-112 -15 -8 -76 -13 -158 -15 -128 -1 -134 -1 -141 20 -5 11 -4 34 0 50 5 16
4 36 -1 47 -7 11 -7 27 0 43 6 16 6 27 -1 31 -5 4 -6 11 -3 17 4 6 7 27 6 47
l-2 36 108 -2 c59 0 124 -2 144 -2z m70 -599 c70 -44 84 -149 29 -216 -32 -37
-68 -47 -174 -47 -183 -1 -180 -1 -174 20 2 10 0 25 -4 34 -5 9 -5 26 1 41 5
15 6 28 0 31 -5 3 -6 15 -1 28 5 12 6 31 4 42 -6 27 -6 62 0 79 4 10 36 13
144 12 125 -2 143 -4 175 -24z"/>
</g>
</svg>
